<?xml version="1.0" standalone="no"?>
<!DOCTYPE svg PUBLIC "-//W3C//DTD SVG 20010904//EN"
 "http://www.w3.org/TR/2001/REC-SVG-20010904/DTD/svg10.dtd">
<svg version="1.0" xmlns="http://www.w3.org/2000/svg"
 width="364.000000pt" height="364.000000pt" viewBox="0 0 364.000000 364.000000"
 preserveAspectRatio="xMidYMid meet">
<metadata>
Created by potrace 1.14, written by Peter Selinger 2001-2017
</metadata>
<g transform="translate(0.000000,364.000000) scale(0.100000,-0.100000)"
fill="#000000" stroke="none">
<path d="M1837 2938 c-32 -32 -85 -127 -216 -378 -95 -184 -175 -337 -177
-339 -1 -1 -28 15 -60 38 -88 63 -135 56 -196 -29 -24 -32 -624 -1160 -699
-1312 -39 -79 -41 -74 71 -130 62 -32 70 -33 180 -33 l115 0 330 113 c627 214
694 232 875 232 78 0 266 -22 276 -33 2 -2 -44 -17 -103 -32 -269 -70 -493
-163 -656 -271 l-89 -59 124 -12 c169 -16 313 -15 375 1 28 8 100 36 160 64
295 136 535 165 857 102 87 -17 160 -30 162 -28 4 5 -1079 1991 -1122 2056
-40 61 -85 92 -132 92 -25 0 -42 -10 -75 -42z m100 -166 c15 -9 74 -114 333
-587 111 -203 213 -389 226 -412 l24 -42 -73 34 c-239 114 -456 74 -790 -144
-183 -120 -223 -136 -332 -136 -83 0 -95 3 -151 33 -34 18 -80 52 -102 75
l-42 43 128 239 c85 160 133 241 145 243 26 5 53 -22 108 -107 l47 -74 110
220 c150 299 300 584 319 606 17 18 31 21 50 9z"/>
<path d="M1395 790 c-16 -7 -17 -9 -3 -9 9 -1 20 4 23 9 7 11 7 11 -20 0z"/>
<path d="M2588 743 c7 -3 16 -2 19 1 4 3 -2 6 -13 5 -11 0 -14 -3 -6 -6z"/>
<path d="M2848 743 c7 -3 16 -2 19 1 4 3 -2 6 -13 5 -11 0 -14 -3 -6 -6z"/>
<path d="M3168 683 c6 -2 18 -2 25 0 6 3 1 5 -13 5 -14 0 -19 -2 -12 -5z"/>
<path d="M693 603 c9 -2 23 -2 30 0 6 3 -1 5 -18 5 -16 0 -22 -2 -12 -5z"/>
<path d="M763 603 c9 -2 23 -2 30 0 6 3 -1 5 -18 5 -16 0 -22 -2 -12 -5z"/>
<path d="M1563 553 c9 -2 25 -2 35 0 9 3 1 5 -18 5 -19 0 -27 -2 -17 -5z"/>
<path d="M1678 543 c6 -2 18 -2 25 0 6 3 1 5 -13 5 -14 0 -19 -2 -12 -5z"/>
<path d="M1807 533 c18 -2 50 -2 70 0 21 2 7 4 -32 4 -38 0 -55 -2 -38 -4z"/>
</g>
</svg>
